<?xml version="1.0" encoding="utf-8"?>
<!-- Generator: Adobe Illustrator 19.1.0, SVG Export Plug-In . SVG Version: 6.00 Build 0)  -->
<svg version="1.1" id="Calque_1" xmlns="http://www.w3.org/2000/svg" xmlns:xlink="http://www.w3.org/1999/xlink" x="0px" y="0px"
	 viewBox="0 0 238 163.2" style="enable-background:new 0 0 238 163.2;" xml:space="preserve">
<style type="text/css">
	.st0{fill:none;stroke:#000000;stroke-width:1.5;stroke-miterlimit:10;}
</style>
<g>
	<path d="M118.5,110.5c-4.6,0-6.9-4.1-6.9-12.3c0-7.2,4.6-21.5,6.9-21.5s6.9,14.3,6.9,21.5C125.4,106.4,123.1,110.5,118.5,110.5z
		 M118.5,78.6c-1.5,2.2-5.4,12.1-5.4,19.7c0,7.3,1.8,10.8,5.4,10.8c1.3,0,5.4,0,5.4-10.8C123.9,90.6,119.9,80.7,118.5,78.6z"/>
	<path class="st0" d="M105.5,84.2"/>
	<path d="M116.5,111c-3.3,0-6.2-3.1-8.7-9.2c-2-4.9-2.6-10.8-2.8-13.9c-0.2-3-0.3-8,0.9-8.5c2.1-0.9,11.8,10.5,14.6,17.2
		c3.1,7.5,2.6,12.2-1.7,14C118,110.8,117.2,111,116.5,111z M106.5,80.9c-0.5,2.6-0.4,13.2,2.6,20.3c2.8,6.7,5.8,9.3,9.1,7.9
		c3.3-1.4,3.6-5.3,0.9-12C116.1,90,108.7,82.4,106.5,80.9z"/>
	<path d="M115,112c-2.7,0-5.9-1.9-9.6-5.5c-5.1-5.1-12-18.4-10.3-20.1c1.6-1.6,15,5.2,20.1,10.3l0,0c5.8,5.8,7,10.3,3.8,13.6
		C117.8,111.5,116.5,112,115,112z M96.4,87.7c0.5,2.6,4.7,12.3,10.1,17.7c5.1,5.1,8.9,6.4,11.4,3.8c2.6-2.6,1.3-6.3-3.8-11.4
		C108.7,92.4,98.9,88.2,96.4,87.7z"/>
	<path d="M120.5,111c-0.8,0-1.5-0.2-2.3-0.5c-4.2-1.7-4.8-6.5-1.7-14l0,0c2.8-6.7,12.4-18.1,14.6-17.2c2.1,0.9,0.9,15.8-1.9,22.5
		C126.7,107.9,123.8,111,120.5,111z M117.9,97.1c-2.8,6.7-2.5,10.6,0.9,12c3.4,1.4,6.3-1.2,9.1-7.9c2.9-7.1,3.1-17.7,2.6-20.3
		C128.2,82.4,120.8,90,117.9,97.1L117.9,97.1z"/>
	<path d="M122,112c-1.5,0-2.8-0.6-4-1.7c-1.5-1.5-2-3.4-1.6-5.5c0.5-2.4,2.3-5,5.4-8.1c5.1-5.1,18.4-12,20.1-10.3
		c1.6,1.6-5.2,15-10.3,20.1C127.8,110.2,124.6,112,122,112z M122.3,97.3l0.5,0.5c-2.8,2.8-4.5,5.3-5,7.3c-0.4,1.6,0,2.9,1.2,4.1
		s2.5,1.5,4.1,1.2c2-0.5,4.5-2.1,7.3-5c5.4-5.4,9.6-15.2,10.1-17.7c-2.6,0.5-12.3,4.7-17.7,10.1L122.3,97.3z"/>
	<path d="M137.6,83.5c-0.4,0-0.6-0.1-0.7-0.2c-1.1-1.1,2.8-9,6.1-12.3c3.6-3.6,6.4-4.3,8.5-2.3c2.1,2.1,1.3,4.9-2.3,8.5l0,0
		c-2.2,2.2-5.4,3.9-7.1,4.8C139.5,83.2,138.2,83.5,137.6,83.5z M148.9,69.1c-1,0-2.5,0.6-4.8,2.9c-2.9,2.9-5.2,7.9-5.8,9.9
		c2-0.6,7-2.9,9.9-5.8l0,0c4.3-4.3,2.8-5.8,2.3-6.3C150.2,69.5,149.7,69.1,148.9,69.1z"/>
	<path d="M118.5,72.1c-1.6,0-4.4-8.4-4.4-13c0-5,1.5-7.6,4.4-7.6c2.9,0,4.4,2.5,4.4,7.6C122.9,63.7,120,72.1,118.5,72.1z M118.5,53
		c-0.7,0-2.9,0-2.9,6.1c0,4,1.9,9.2,2.9,11.1c1-1.8,2.9-7,2.9-11.1C121.4,53,119.2,53,118.5,53z"/>
	<path d="M100.4,83.5c-0.6,0-1.9-0.3-4.6-1.6c-1.7-0.8-4.8-2.5-7.1-4.8c-3.6-3.6-4.3-6.4-2.3-8.5c1-1,2.2-1.3,3.5-1
		c1.5,0.3,3.1,1.4,4.9,3.3c2.2,2.2,3.9,5.4,4.8,7.1c2.2,4.4,1.6,5,1.4,5.2C101,83.4,100.8,83.5,100.4,83.5z M89.1,69.1
		c-0.8,0-1.3,0.5-1.5,0.7c-0.5,0.5-2,2,2.3,6.3c2.9,2.9,7.9,5.2,9.9,5.8c-0.6-2-2.9-7-5.8-9.9C91.6,69.7,90.1,69.1,89.1,69.1z"/>
</g>
</svg>
