<?xml version="1.0" encoding="utf-8"?>
<!-- Generator: Adobe Illustrator 19.1.0, SVG Export Plug-In . SVG Version: 6.00 Build 0)  -->
<svg version="1.1" id="Calque_1" xmlns="http://www.w3.org/2000/svg" xmlns:xlink="http://www.w3.org/1999/xlink" x="0px" y="0px"
	 viewBox="-360 199.8 238 163.2" style="enable-background:new -360 199.8 238 163.2;" xml:space="preserve">
<style type="text/css">
	.st0{fill:none;stroke:#000000;stroke-width:1.5;stroke-miterlimit:10;}
</style>
<g>
	<path class="st0" d="M-262.2,265.9c0,8.9-2.7,11.5-6.1,11.5s-6.1-2.6-6.1-11.5s5.2-20.7,6.1-20.7
		C-267.4,245.2-262.2,257-262.2,265.9z"/>
	<path class="st0" d="M-281.4,251.9"/>
	<path class="st0" d="M-267.1,264.4c3.4,8.2,1.9,11.7-1.3,13c-3.1,1.3-6.7-0.1-10.1-8.3c-3.4-8.2-3.1-21.1-2.2-21.5
		C-279.8,247.3-270.5,256.2-267.1,264.4z"/>
	<path class="st0" d="M-272.2,264.9c6.3,6.3,6.2,10.1,3.8,12.5c-2.4,2.4-6.2,2.5-12.5-3.8s-11-18.3-10.3-19
		C-290.5,253.9-278.5,258.6-272.2,264.9z"/>
	<path class="st0" d="M-269.7,264.4c-3.4,8.2-1.9,11.7,1.3,13c3.1,1.3,6.7-0.1,10.1-8.3c3.4-8.2,3.2-21.1,2.3-21.5
		C-256.9,247.3-266.2,256.2-269.7,264.4z"/>
	<path class="st0" d="M-264.6,264.9c-6.3,6.3-6.2,10.1-3.8,12.5c2.4,2.4,6.2,2.5,12.5-3.8c6.3-6.3,11-18.3,10.3-19
		C-246.2,253.9-258.3,258.6-264.6,264.9z"/>
	<path class="st0" d="M-238.2,244.3c3.7-3.7,3.7-6,2.3-7.4s-3.7-1.5-7.4,2.3c-3.7,3.7-6.5,10.9-6.1,11.3
		C-249,250.9-241.9,248-238.2,244.3z"/>
	<path class="st0" d="M-264.8,226.8c0-5.3-1.6-6.8-3.6-6.8s-3.6,1.6-3.6,6.8s3.1,12.3,3.6,12.3S-264.8,232-264.8,226.8z"/>
	<path class="st0" d="M-292.4,239.1c-3.7-3.7-6-3.7-7.4-2.3c-1.4,1.5-1.5,3.8,2.2,7.5s10.9,6.5,11.3,6.1
		C-285.9,250-288.7,242.9-292.4,239.1z"/>
	<path d="M-338.7,301.6h2.8V278h-2.8v-0.6h10.3v0.6h-3.5v23.6h1.9c7.4,0,8.4-1.4,8.8-8.7h0.6l-0.4,9.3h-17.7L-338.7,301.6
		L-338.7,301.6z"/>
	<path d="M-294.6,288.8c0,4.7-5,5.1-9.7,5.1h-1.8v1.1c0,3.8,1.4,6.9,5.3,6.9c3.1,0,4.9-2.4,5.6-5.2l0.7,0.1
		c-0.8,3.6-3.2,6.2-7.1,6.2c-5.5,0-8.1-4-8.1-9.5c0-5.6,2.9-9.5,8.5-9.5C-297.8,283.9-294.6,285.2-294.6,288.8z M-304.8,293.2
		c3.8,0,6.5-0.6,6.5-4.4c0-2.4-1-4.2-3.4-4.2c-3.5,0-4.5,4-4.5,7.5v1.1H-304.8z"/>
	<path d="M-275.6,302.2h-8.4v-0.6h2.5v-16.4h-2.7v-0.6h0.8c1.9,0,3.5-0.1,5.4-0.5v3.8h0.2c0.8-2.4,3-4.1,5.5-4.1
		c3.3,0,4.8,1.5,5.4,4.1h0.3c0.8-2.4,3-4.1,5.5-4.1c4.7,0,5.5,3.1,5.5,7.8v9.9h2.5v0.6h-8.4v-0.6h2.5v-10.7c0-2.8-0.2-5.9-2.8-5.9
		c-4.3,0-5.1,5.4-5.1,9.8v6.9h2.5v0.6h-8.2v-0.6h2.5v-10.8c0-2.8-0.2-5.9-2.8-5.9c-4.3,0-5.1,5.4-5.1,9.8v6.9h2.4L-275.6,302.2
		L-275.6,302.2z"/>
	<path d="M-242.7,293.4c0-5.4,3-9.5,8.4-9.5s8.4,4.1,8.4,9.5s-3,9.5-8.4,9.5C-239.7,303-242.7,298.8-242.7,293.4z M-234.3,284.6
		c-4.2,0-4.7,4.7-4.7,8.9s0.5,8.9,4.7,8.9s4.7-4.7,4.7-8.9C-229.6,289.2-230.1,284.6-234.3,284.6z"/>
	<path d="M-206.3,302.2h-8.4v-0.6h2.5v-16.4h-2.7v-0.6h0.8c1.9,0,3.5-0.1,5.4-0.5v3.8h0.2c0.8-2.4,3.1-4.1,5.6-4.1
		c4.7,0,5.8,3.1,5.8,7.8v9.9h2.5v0.6h-8.4v-0.6h2.5v-9.2c0-3.1,0-7.3-3.1-7.3c-4.3,0-5.2,5.4-5.2,9.8v6.9h2.5L-206.3,302.2
		L-206.3,302.2z"/>
	<path d="M-258.3,339.4c0-0.2-0.1-0.4-0.3-0.4s-0.3,0.1-0.4,0.3c-0.2,0.6-0.8,1.2-1.8,1.2c-1.1,0-2-0.8-2-2.1c0-1.7,1.3-2.6,2.5-2.6
		c1.4,0,2.7,1.2,2.7,3c0,1.9-1.6,3.7-4.3,3.7c-3.9,0-7.1-3.4-10-3.4c-1.4,0-2.1,0.6-2.1,1.5c0,0.5,0.3,1.2,0.9,1.9l-0.5,0.4
		c-1-1.1-1.6-2.4-1.6-3.8c0-2.9,2.2-4.2,5.1-4.4v-0.2c-6-0.9-9.1-6.6-9.1-13.2c0-6.9,3.9-13,10.8-13s10.8,6.1,10.8,13
		c0,5.1-2,10.3-6.6,12.4c-1.7,0.8-3.4,1.1-5.1,1.3c-0.9,0.1-2.5,0.3-2.7,0.8v0.1c3.4,0,6.5,5.8,10.3,5.8
		C-260.1,341.9-258.5,341.1-258.3,339.4z M-262.3,321.4c0-5.8-0.3-12.3-6.1-12.3c-5.8,0-6.1,6.5-6.1,12.3c0,5.9,0.2,12.5,6.1,12.5
		C-262.7,334-262.3,327.2-262.3,321.4z"/>
	<path d="M-235.3,316.9v-0.6h0.8c1.8,0,3.5-0.1,5.3-0.5v17.5h2.5v0.6h-6v-3.3h-0.2c-0.8,2.4-3.1,4.1-5.6,4.1c-4.7,0-5.5-3.2-5.5-7.8
		V317h-2.7v-0.6h0.8c1.8,0,3.5-0.1,5.3-0.5v10.4c0,3.1,0,7.3,2.8,7.3c4.3,0,5.2-5.4,5.2-9.8v-6.9L-235.3,316.9L-235.3,316.9z"/>
	<path d="M-200.4,320.5c0,4.7-5,5.1-9.7,5.1h-1.8v1.1c0,3.8,1.4,6.9,5.3,6.9c3.1,0,4.9-2.4,5.6-5.2l0.7,0.1
		c-0.8,3.6-3.2,6.2-7.1,6.2c-5.5,0-8.1-4-8.1-9.5c0-5.6,2.9-9.5,8.5-9.5C-203.6,315.6-200.4,317-200.4,320.5z M-210.5,324.9
		c3.8,0,6.5-0.6,6.5-4.4c0-2.4-1-4.2-3.4-4.2c-3.5,0-4.5,4-4.5,7.5v1.1H-210.5z"/>
	<path d="M-174,320.5c0,4.7-5,5.1-9.7,5.1h-1.9v1.1c0,3.8,1.4,6.9,5.3,6.9c3.1,0,4.9-2.4,5.6-5.2l0.7,0.1c-0.8,3.6-3.2,6.2-7.1,6.2
		c-5.5,0-8.1-4-8.1-9.5c0-5.6,2.9-9.5,8.5-9.5C-177.3,315.6-174,317-174,320.5z M-184.2,324.9c3.8,0,6.5-0.6,6.5-4.4
		c0-2.4-1-4.2-3.4-4.2c-3.5,0-4.5,4-4.5,7.5v1.1H-184.2z"/>
	<path d="M-155,333.9h-8.4v-0.6h2.5v-16.4h-2.7v-0.6h0.8c1.9,0,3.5-0.1,5.4-0.5v3.8h0.2c0.8-2.4,3.1-4.1,5.6-4.1
		c4.7,0,5.8,3.1,5.8,7.8v9.9h2.5v0.6h-8.4v-0.5h2.5v-9.4c0-3.1,0-7.3-3.1-7.3c-4.3,0-5.2,5.4-5.2,9.8v6.9h2.5L-155,333.9L-155,333.9
		z"/>
</g>
</svg>
