<?xml version="1.0" encoding="utf-8"?>
<!-- Generator: Adobe Illustrator 19.1.0, SVG Export Plug-In . SVG Version: 6.00 Build 0)  -->
<svg version="1.1" id="Calque_1" xmlns="http://www.w3.org/2000/svg" xmlns:xlink="http://www.w3.org/1999/xlink" x="0px" y="0px"
	 viewBox="-360 199.8 238 163.2" style="enable-background:new -360 199.8 238 163.2;" xml:space="preserve">
<style type="text/css">
	.st0{fill:none;stroke:#000000;stroke-width:1.5;stroke-miterlimit:10;}
</style>
<g>
	<path class="st0" d="M-262.6,266.4c0,8.9-2.7,11.5-6.1,11.5c-3.4,0-6.1-2.6-6.1-11.5s5.2-20.7,6.1-20.7
		C-267.8,245.7-262.6,257.5-262.6,266.4z"/>
	<path class="st0" d="M-281.8,252.4"/>
	<path class="st0" d="M-267.5,264.9c3.4,8.2,1.9,11.7-1.3,13c-3.1,1.3-6.7-0.1-10.1-8.3c-3.4-8.2-3.1-21.1-2.2-21.5
		C-280.2,247.8-270.9,256.7-267.5,264.9z"/>
	<path class="st0" d="M-272.6,265.4c6.3,6.3,6.2,10.1,3.8,12.5c-2.4,2.4-6.2,2.5-12.5-3.8c-6.3-6.3-11-18.3-10.3-19
		C-290.9,254.4-278.9,259.1-272.6,265.4z"/>
	<path class="st0" d="M-270.1,264.9c-3.4,8.2-1.9,11.7,1.3,13c3.1,1.3,6.7-0.1,10.1-8.3c3.4-8.2,3.2-21.1,2.3-21.5
		C-257.3,247.8-266.6,256.7-270.1,264.9z"/>
	<path class="st0" d="M-265,265.4c-6.3,6.3-6.2,10.1-3.8,12.5c2.4,2.4,6.2,2.5,12.5-3.8c6.3-6.3,11-18.3,10.3-19
		C-246.6,254.4-258.7,259.1-265,265.4z"/>
	<path class="st0" d="M-238.6,244.8c3.7-3.7,3.7-6,2.3-7.4c-1.4-1.4-3.7-1.5-7.4,2.3c-3.7,3.7-6.5,10.9-6.1,11.3
		C-249.4,251.4-242.3,248.5-238.6,244.8z"/>
	<path class="st0" d="M-265.2,227.3c0-5.3-1.6-6.8-3.6-6.8s-3.6,1.6-3.6,6.8s3.1,12.3,3.6,12.3S-265.2,232.5-265.2,227.3z"/>
	<path class="st0" d="M-292.8,239.6c-3.7-3.7-6-3.7-7.4-2.3c-1.4,1.5-1.5,3.8,2.2,7.5s10.9,6.5,11.3,6.1
		C-286.3,250.5-289.1,243.4-292.8,239.6z"/>
	<path d="M-339.1,302.1h2.8v-23.6h-2.8v-0.6h10.3v0.6h-3.5v23.6h1.9c7.4,0,8.4-1.4,8.8-8.7h0.6l-0.4,9.3h-17.7V302.1z"/>
	<path d="M-295,289.3c0,4.7-5,5.1-9.7,5.1h-1.8v1.1c0,3.8,1.4,6.9,5.3,6.9c3.1,0,4.9-2.4,5.6-5.2l0.7,0.1c-0.8,3.6-3.2,6.2-7.1,6.2
		c-5.5,0-8.1-4-8.1-9.5c0-5.6,2.9-9.5,8.5-9.5C-298.2,284.4-295,285.8-295,289.3z M-305.2,293.7c3.8,0,6.5-0.6,6.5-4.4
		c0-2.4-1-4.2-3.4-4.2c-3.5,0-4.5,4-4.5,7.5v1.1H-305.2z"/>
	<path d="M-276,302.7h-8.4v-0.6h2.5v-16.4h-2.7v-0.6h0.8c1.9,0,3.5-0.1,5.4-0.5v3.8h0.2c0.8-2.4,3-4.1,5.5-4.1
		c3.3,0,4.8,1.5,5.4,4.1h0.3c0.8-2.4,3-4.1,5.5-4.1c4.7,0,5.5,3.1,5.5,7.8v9.9h2.5v0.6h-8.4V302h2.5v-10.7c0-2.8-0.2-5.9-2.8-5.9
		c-4.3,0-5.1,5.4-5.1,9.8v6.9h2.5v0.6h-8.2v-0.6h2.5v-10.8c0-2.8-0.2-5.9-2.8-5.9c-4.3,0-5.1,5.4-5.1,9.8v6.9h2.4V302.7z"/>
	<path d="M-243.1,293.9c0-5.4,3-9.5,8.4-9.5c5.4,0,8.4,4.1,8.4,9.5s-3,9.5-8.4,9.5C-240.1,303.5-243.1,299.3-243.1,293.9z
		 M-234.7,285.1c-4.2,0-4.7,4.7-4.7,8.9s0.5,8.9,4.7,8.9s4.7-4.7,4.7-8.9C-230,289.7-230.5,285.1-234.7,285.1z"/>
	<path d="M-206.7,302.7h-8.4v-0.6h2.5v-16.4h-2.7v-0.6h0.8c1.9,0,3.5-0.1,5.4-0.5v3.8h0.2c0.8-2.4,3.1-4.1,5.6-4.1
		c4.7,0,5.8,3.1,5.8,7.8v9.9h2.5v0.6h-8.4V302h2.5v-9.2c0-3.1,0-7.3-3.1-7.3c-4.3,0-5.2,5.4-5.2,9.8v6.9h2.5L-206.7,302.7
		L-206.7,302.7z"/>
	<path d="M-258.7,339.9c0-0.2-0.1-0.4-0.3-0.4s-0.3,0.1-0.4,0.3c-0.2,0.6-0.8,1.2-1.8,1.2c-1.1,0-2-0.8-2-2.1c0-1.7,1.3-2.6,2.5-2.6
		c1.4,0,2.7,1.2,2.7,3c0,1.9-1.6,3.7-4.3,3.7c-3.9,0-7.1-3.4-10-3.4c-1.4,0-2.1,0.6-2.1,1.5c0,0.5,0.3,1.2,0.9,1.9l-0.5,0.4
		c-1-1.1-1.6-2.4-1.6-3.8c0-2.9,2.2-4.2,5.1-4.4V335c-6-0.9-9.1-6.6-9.1-13.2c0-6.9,3.9-13,10.8-13c6.9,0,10.8,6.1,10.8,13
		c0,5.1-2,10.3-6.6,12.4c-1.7,0.8-3.4,1.1-5.1,1.3c-0.9,0.1-2.5,0.3-2.7,0.8v0.1c3.4,0,6.5,5.8,10.3,5.8
		C-260.5,342.4-258.9,341.6-258.7,339.9z M-262.7,321.9c0-5.8-0.3-12.3-6.1-12.3c-5.8,0-6.1,6.5-6.1,12.3c0,5.9,0.2,12.5,6.1,12.5
		C-263.1,334.5-262.7,327.7-262.7,321.9z"/>
	<path d="M-235.7,317.4v-0.6h0.8c1.8,0,3.5-0.1,5.3-0.5v17.5h2.5v0.6h-6v-3.3h-0.2c-0.8,2.4-3.1,4.1-5.6,4.1c-4.7,0-5.5-3.2-5.5-7.8
		v-9.9h-2.7v-0.6h0.8c1.8,0,3.5-0.1,5.3-0.5v10.4c0,3.1,0,7.3,2.8,7.3c4.3,0,5.2-5.4,5.2-9.8v-6.9H-235.7z"/>
	<path d="M-200.8,321c0,4.7-5,5.1-9.7,5.1h-1.8v1.1c0,3.8,1.4,6.9,5.3,6.9c3.1,0,4.9-2.4,5.6-5.2l0.7,0.1c-0.8,3.6-3.2,6.2-7.1,6.2
		c-5.5,0-8.1-4-8.1-9.5c0-5.6,2.9-9.5,8.5-9.5C-204,316.1-200.8,317.5-200.8,321z M-210.9,325.4c3.8,0,6.5-0.6,6.5-4.4
		c0-2.4-1-4.2-3.4-4.2c-3.5,0-4.5,4-4.5,7.5v1.1H-210.9z"/>
	<path d="M-174.4,321c0,4.7-5,5.1-9.7,5.1h-1.9v1.1c0,3.8,1.4,6.9,5.3,6.9c3.1,0,4.9-2.4,5.6-5.2l0.7,0.1c-0.8,3.6-3.2,6.2-7.1,6.2
		c-5.5,0-8.1-4-8.1-9.5c0-5.6,2.9-9.5,8.5-9.5C-177.7,316.1-174.4,317.5-174.4,321z M-184.6,325.4c3.8,0,6.5-0.6,6.5-4.4
		c0-2.4-1-4.2-3.4-4.2c-3.5,0-4.5,4-4.5,7.5v1.1H-184.6z"/>
	<path d="M-155.4,334.4h-8.4v-0.6h2.5v-16.4h-2.7v-0.6h0.8c1.9,0,3.5-0.1,5.4-0.5v3.8h0.2c0.8-2.4,3.1-4.1,5.6-4.1
		c4.7,0,5.8,3.1,5.8,7.8v9.9h2.5v0.6h-8.4v-0.5h2.5v-9.4c0-3.1,0-7.3-3.1-7.3c-4.3,0-5.2,5.4-5.2,9.8v6.9h2.5V334.4z"/>
</g>
</svg>
